<svg width="26" height="26" viewBox="0 0 26 26" fill="none" xmlns="http://www.w3.org/2000/svg">
<g id="Group 18072">
<circle id="Ellipse 137" cx="13" cy="13" r="13" fill="white"/>
<g id="Group">
<path id="Vector" d="M17.9708 7.28865L17.9708 7.28866L17.9689 7.28647C17.5675 6.83285 16.9041 6.75819 16.4355 7.09546L16.4351 7.09578C15.937 7.45322 15.768 8.11673 16.0466 8.66843L16.048 8.67116C16.1099 8.79602 16.2099 8.92307 16.3295 9.04254L16.3312 9.04432C17.7677 10.4983 18.3446 12.2736 17.8341 14.3294L17.8341 14.3296C17.3466 16.2895 16.0916 17.5916 14.2444 18.1774L14.2439 18.1776C12.4432 18.7458 10.7473 18.3828 9.29385 17.1611C8.04104 16.1107 7.39943 14.6968 7.37738 13.0317C7.35838 11.703 7.8042 10.528 8.62331 9.52526C8.69458 9.43745 8.77424 9.3663 8.83162 9.3155C8.83664 9.31105 8.8415 9.30675 8.84621 9.30259C8.90256 9.25275 8.93761 9.22174 8.96795 9.18826L8.96793 9.18824L8.97093 9.18501C9.3007 8.82904 9.38902 8.42549 9.24507 7.95204C9.09942 7.48532 8.79129 7.22032 8.32751 7.12623C7.98891 7.05827 7.68268 7.14287 7.38088 7.38522L7.37967 7.38619C6.77746 7.86596 6.35485 8.51602 5.96088 9.25152C5.29886 10.4886 5.00042 11.8241 5.04793 13.2449L5.04794 13.2454C5.10383 14.978 5.65228 16.5168 6.68685 17.8676C7.66908 19.147 8.89547 20.0439 10.3793 20.4968L10.3796 20.4969C12.912 21.2722 15.2522 20.8674 17.372 19.2077L17.3722 19.2075C18.7442 18.1348 19.6461 16.7093 20.094 14.9677L20.0945 14.9659C20.2628 14.3236 20.3359 13.6623 20.339 12.9822C20.3074 10.8173 19.5663 8.97541 18.1076 7.44394L18.3972 7.16806L18.1084 7.44476C18.077 7.41203 18.0257 7.3523 17.9948 7.31631C17.9833 7.30297 17.9747 7.29289 17.9708 7.28865Z" fill="#FE724C" stroke="white" stroke-width="0.8"/>
<path id="Vector_2" d="M11.1115 10.6563C11.1144 11.4967 11.7262 12.1934 12.5224 12.2728C13.3478 12.3584 14.0855 11.8022 14.2494 10.9649C14.2728 10.8458 14.2758 10.7235 14.2758 10.6013M11.1115 10.6563C11.1056 8.39502 11.1056 7.60039 11.1115 5.33909C11.1115 4.7371 11.3837 4.26956 11.8725 3.96398C12.3819 3.64312 12.9263 3.6309 13.4474 3.93037C13.9801 4.23595 14.267 4.72182 14.2699 5.36354M11.1115 10.6563L11.5114 10.6553C11.5114 10.6552 11.5114 10.6552 11.5114 10.6552C11.5138 11.3041 11.9833 11.8171 12.5621 11.8748L12.5636 11.875C13.1758 11.9384 13.7313 11.5297 13.8569 10.8881L13.8569 10.8878C13.8722 10.81 13.8757 10.7216 13.8758 10.6023M11.1115 10.6563L11.5114 10.6549L13.8758 10.6023M14.2699 5.36354C14.2718 6.08131 14.2713 6.50094 14.2706 7.00303C14.2703 7.28757 14.2699 7.59858 14.2699 8.00534V8.00539C14.2699 9.11461 14.2699 9.49207 14.2758 10.6013M14.2699 5.36354L13.8699 5.36536C13.8699 5.36524 13.8699 5.36512 13.8699 5.36499M14.2699 5.36354L13.8699 5.36458C13.8699 5.36472 13.8699 5.36486 13.8699 5.36499M14.2758 10.6013L13.8758 10.6034C13.8758 10.6031 13.8758 10.6027 13.8758 10.6023M14.2758 10.6013H13.8758C13.8758 10.6017 13.8758 10.602 13.8758 10.6023M13.8758 10.6023C13.8699 9.4929 13.8699 9.11454 13.8699 8.00534C13.8699 7.59755 13.8703 7.28623 13.8706 7.00165C13.8713 6.50025 13.8718 6.08185 13.8699 5.36499M13.8758 10.6023L11.5114 5.34013L11.5115 5.33909C11.5115 4.87805 11.71 4.53727 12.0845 4.30316L12.0857 4.30243L12.0857 4.30242C12.4704 4.06008 12.8562 4.05195 13.248 4.27717L13.2483 4.27734C13.6556 4.51093 13.8675 4.8642 13.8699 5.36499" fill="#FE724C" stroke="white" stroke-width="0.8"/>
</g>
</g>
</svg>
