<svg width="23" height="23" viewBox="0 0 23 23" fill="none" xmlns="http://www.w3.org/2000/svg">
<g id="menu-icon">
<g id="Document">
<path id="Path" opacity="0.4" d="M15.5164 1.91666H7.48458C4.57125 1.91666 2.875 3.62249 2.875 6.54541V16.445C2.875 19.4158 4.57125 21.0833 7.48458 21.0833H15.5164C18.4767 21.0833 20.125 19.4158 20.125 16.445V6.54541C20.125 3.62249 18.4767 1.91666 15.5164 1.91666Z" fill="#9796A1"/>
<path id="Combined Shape" fill-rule="evenodd" clip-rule="evenodd" d="M7.74302 6.37274V6.38233C7.32998 6.38233 6.99552 6.71774 6.99552 7.12983C6.99552 7.54191 7.32998 7.87733 7.74302 7.87733H10.6075C11.0205 7.87733 11.3559 7.54191 11.3559 7.11928C11.3559 6.70816 11.0205 6.37274 10.6075 6.37274H7.74302ZM15.2564 12.209H7.74302C7.32998 12.209 6.99552 11.8736 6.99552 11.4615C6.99552 11.0495 7.32998 10.7131 7.74302 10.7131H15.2564C15.6684 10.7131 16.0039 11.0495 16.0039 11.4615C16.0039 11.8736 15.6684 12.209 15.2564 12.209ZM15.2565 16.5885H7.74317C7.45567 16.6269 7.17776 16.4831 7.02442 16.2435C6.87109 15.9944 6.87109 15.6781 7.02442 15.4385C7.17776 15.1894 7.45567 15.0552 7.74317 15.0839H15.2565C15.6389 15.1223 15.9273 15.4481 15.9273 15.841C15.9273 16.2234 15.6389 16.5502 15.2565 16.5885Z" fill="#9796A1"/>
</g>
</g>
</svg>
